<svg xmlns="http://www.w3.org/2000/svg" viewBox="0 0 320 520" role="img" aria-labelledby="title desc">
  <title id="title">Laura Pold player card</title>
  <desc id="desc">Purple esports-style player card for Laura Pold, support player.</desc>
  <defs>
    <linearGradient id="bg" x1="0" y1="0" x2="1" y2="1">
      <stop offset="0%" stop-color="#0f081b"/>
      <stop offset="55%" stop-color="#311156"/>
      <stop offset="100%" stop-color="#09060f"/>
    </linearGradient>
  </defs>
  <rect width="320" height="520" rx="28" fill="url(#bg)"/>
  <circle cx="258" cy="86" r="96" fill="#f472ff" opacity="0.17"/>
  <circle cx="78" cy="400" r="120" fill="#7c3aed" opacity="0.16"/>
  <rect x="20" y="20" width="280" height="480" rx="22" fill="none" stroke="#f3c4ff" stroke-opacity="0.26"/>
  <text x="30" y="58" fill="#d699eb" font-size="24" font-family="Arial, sans-serif" letter-spacing="3">NEXUS</text>
  <text x="30" y="94" fill="#ffffff" font-size="64" font-family="Arial, sans-serif" font-weight="700">LP</text>
  <text x="30" y="122" fill="#bca4df" font-size="18" font-family="Arial, sans-serif" letter-spacing="4">SUPPORT</text>
  <path d="M158 164c46 0 82 38 82 86v84H76v-84c0-48 36-86 82-86Z" fill="#100a1a"/>
  <circle cx="158" cy="140" r="56" fill="#1d1230" stroke="#d699eb" stroke-width="4"/>
  <path d="M158 92c22 0 39 15 39 35 0 17-13 31-31 34v23h-15v-23c-18-3-31-17-31-34 0-20 16-35 38-35Z" fill="#ddb28f"/>
  <path d="M111 246c15-33 35-49 47-49 15 0 35 16 50 49l22 88H86l25-88Z" fill="#26143a"/>
  <path d="M118 252h80c17 14 26 41 29 82H89c4-41 14-68 29-82Z" fill="#f472ff" opacity="0.88"/>
  <path d="M158 197c18 0 33 11 44 30-10 14-24 21-44 21s-35-7-45-21c11-19 26-30 45-30Z" fill="#1a0f24"/>
  <text x="30" y="384" fill="#e3b9ff" font-size="18" font-family="Arial, sans-serif" letter-spacing="4">LAURA POLD</text>
  <text x="30" y="420" fill="#ffffff" font-size="34" font-family="Arial, sans-serif" font-weight="700">BACKLINE ICE</text>
  <text x="30" y="450" fill="#d7c8eb" font-size="16" font-family="Arial, sans-serif">Locks angles, stabilises every rotation.</text>
  <rect x="30" y="468" width="120" height="22" rx="11" fill="#f3c4ff"/>
  <text x="46" y="484" fill="#1a0d28" font-size="14" font-family="Arial, sans-serif" font-weight="700">PATCH READY</text>
</svg>
