<svg xmlns="http://www.w3.org/2000/svg" viewBox="0 0 320 520" role="img" aria-labelledby="title desc">
  <title id="title">Marten Kask player card</title>
  <desc id="desc">Purple esports-style player card for Marten Kask, team captain.</desc>
  <defs>
    <linearGradient id="bg" x1="0" y1="0" x2="1" y2="1">
      <stop offset="0%" stop-color="#12081f"/>
      <stop offset="55%" stop-color="#261041"/>
      <stop offset="100%" stop-color="#09060f"/>
    </linearGradient>
    <linearGradient id="glow" x1="0" y1="0" x2="1" y2="1">
      <stop offset="0%" stop-color="#e8b9ff"/>
      <stop offset="100%" stop-color="#8c00ff"/>
    </linearGradient>
  </defs>
  <rect width="320" height="520" rx="28" fill="url(#bg)"/>
  <circle cx="255" cy="88" r="92" fill="#8c00ff" opacity="0.23"/>
  <circle cx="82" cy="418" r="110" fill="#00f0b5" opacity="0.14"/>
  <rect x="20" y="20" width="280" height="480" rx="22" fill="none" stroke="#d699eb" stroke-opacity="0.25"/>
  <text x="30" y="58" fill="#d699eb" font-size="24" font-family="Arial, sans-serif" letter-spacing="3">NEXUS</text>
  <text x="30" y="94" fill="#ffffff" font-size="64" font-family="Arial, sans-serif" font-weight="700">MK</text>
  <text x="30" y="122" fill="#8f79b6" font-size="18" font-family="Arial, sans-serif" letter-spacing="4">CAPTAIN</text>
  <path d="M158 164c46 0 82 38 82 86v84H76v-84c0-48 36-86 82-86Z" fill="#0f0a18"/>
  <circle cx="158" cy="136" r="56" fill="#1f132e" stroke="#ad63ff" stroke-width="4"/>
  <path d="M158 91c22 0 38 15 38 34 0 17-13 31-31 34v25h-14v-25c-18-3-31-17-31-34 0-19 16-34 38-34Z" fill="#c69b76"/>
  <path d="M110 250c22-34 54-52 96-52 14 18 22 39 24 63v73H86v-73c1-5 2-8 4-11 8 1 15 1 20 0Z" fill="#181127"/>
  <path d="M112 212c18-19 33-27 46-27s29 8 48 27c-3 19-19 35-48 35s-45-16-46-35Z" fill="#111"/>
  <path d="M110 245h96l22 89H88l22-89Z" fill="#8c00ff" opacity="0.88"/>
  <path d="M158 249l20 85h-40l20-85Z" fill="#f5effc" opacity="0.95"/>
  <text x="30" y="384" fill="#d699eb" font-size="18" font-family="Arial, sans-serif" letter-spacing="4">MARTEN KASK</text>
  <text x="30" y="420" fill="#ffffff" font-size="34" font-family="Arial, sans-serif" font-weight="700">SHOTCALLER</text>
  <text x="30" y="450" fill="#c9b7e0" font-size="16" font-family="Arial, sans-serif">Controls pace, opens lanes, closes rounds.</text>
  <rect x="30" y="468" width="112" height="22" rx="11" fill="url(#glow)"/>
  <text x="46" y="484" fill="#12081f" font-size="14" font-family="Arial, sans-serif" font-weight="700">SEASON 24/25</text>
</svg>
