<svg xmlns="http://www.w3.org/2000/svg" viewBox="0 0 320 520" role="img" aria-labelledby="title desc">
  <title id="title">Tonis Laan player card</title>
  <desc id="desc">Purple esports-style player card for Tonis Laan, anchor player.</desc>
  <defs>
    <linearGradient id="bg" x1="0" y1="0" x2="1" y2="1">
      <stop offset="0%" stop-color="#13081d"/>
      <stop offset="55%" stop-color="#35114f"/>
      <stop offset="100%" stop-color="#08050d"/>
    </linearGradient>
  </defs>
  <rect width="320" height="520" rx="28" fill="url(#bg)"/>
  <circle cx="252" cy="84" r="90" fill="#9b00ff" opacity="0.18"/>
  <circle cx="70" cy="416" r="122" fill="#00f0b5" opacity="0.11"/>
  <rect x="20" y="20" width="280" height="480" rx="22" fill="none" stroke="#d699eb" stroke-opacity="0.24"/>
  <text x="30" y="58" fill="#d699eb" font-size="24" font-family="Arial, sans-serif" letter-spacing="3">NEXUS</text>
  <text x="30" y="94" fill="#ffffff" font-size="64" font-family="Arial, sans-serif" font-weight="700">TL</text>
  <text x="30" y="122" fill="#b79dd3" font-size="18" font-family="Arial, sans-serif" letter-spacing="4">ANCHOR</text>
  <path d="M158 164c46 0 82 38 82 86v84H76v-84c0-48 36-86 82-86Z" fill="#100919"/>
  <circle cx="158" cy="138" r="56" fill="#22112f" stroke="#00f0b5" stroke-width="4"/>
  <path d="M158 92c22 0 39 15 39 35 0 17-13 31-31 34v23h-15v-23c-18-3-31-17-31-34 0-20 16-35 38-35Z" fill="#d3a079"/>
  <path d="M110 247c13-35 29-52 48-52 20 0 36 17 50 52l23 87H85l25-87Z" fill="#180e24"/>
  <path d="M110 247h96l25 87H85l25-87Z" fill="#00f0b5" opacity="0.72"/>
  <path d="M122 247h72l17 87H105l17-87Z" fill="#1b1128"/>
  <text x="30" y="384" fill="#d3fff4" font-size="18" font-family="Arial, sans-serif" letter-spacing="4">TONIS LAAN</text>
  <text x="30" y="420" fill="#ffffff" font-size="34" font-family="Arial, sans-serif" font-weight="700">LAST WALL</text>
  <text x="30" y="450" fill="#d8d1e4" font-size="16" font-family="Arial, sans-serif">Absorbs pressure and turns late rounds.</text>
  <rect x="30" y="468" width="114" height="22" rx="11" fill="#00f0b5"/>
  <text x="46" y="484" fill="#0a1513" font-size="14" font-family="Arial, sans-serif" font-weight="700">CLUTCH READY</text>
</svg>
