<svg xmlns="http://www.w3.org/2000/svg" viewBox="0 0 320 520" role="img" aria-labelledby="title desc">
  <title id="title">Andres Vaher player card</title>
  <desc id="desc">Purple esports-style player card for Andres Vaher, entry fragger.</desc>
  <defs>
    <linearGradient id="bg" x1="0" y1="0" x2="1" y2="1">
      <stop offset="0%" stop-color="#12081e"/>
      <stop offset="55%" stop-color="#3a0f4a"/>
      <stop offset="100%" stop-color="#09060f"/>
    </linearGradient>
  </defs>
  <rect width="320" height="520" rx="28" fill="url(#bg)"/>
  <circle cx="256" cy="92" r="90" fill="#ff5ea8" opacity="0.18"/>
  <circle cx="74" cy="416" r="116" fill="#9b00ff" opacity="0.16"/>
  <rect x="20" y="20" width="280" height="480" rx="22" fill="none" stroke="#f3c4ff" stroke-opacity="0.25"/>
  <text x="30" y="58" fill="#d699eb" font-size="24" font-family="Arial, sans-serif" letter-spacing="3">NEXUS</text>
  <text x="30" y="94" fill="#ffffff" font-size="64" font-family="Arial, sans-serif" font-weight="700">AV</text>
  <text x="30" y="122" fill="#cb9ce1" font-size="18" font-family="Arial, sans-serif" letter-spacing="4">ENTRY</text>
  <path d="M158 164c46 0 82 38 82 86v84H76v-84c0-48 36-86 82-86Z" fill="#0f0918"/>
  <circle cx="158" cy="138" r="56" fill="#241131" stroke="#ff5ea8" stroke-width="4"/>
  <path d="M158 91c22 0 39 15 39 35 0 17-13 31-31 34v24h-15v-24c-18-3-31-17-31-34 0-20 16-35 38-35Z" fill="#d4a179"/>
  <path d="M118 211c13-18 26-27 40-27 16 0 31 9 46 27-2 24-18 38-46 38s-43-14-40-38Z" fill="#1b0e25"/>
  <path d="M110 248h96l25 86H85l25-86Z" fill="#ff5ea8" opacity="0.83"/>
  <path d="M124 248h68l11 86H113l11-86Z" fill="#1c1127"/>
  <text x="30" y="384" fill="#f3c4ff" font-size="18" font-family="Arial, sans-serif" letter-spacing="4">ANDRES VAHER</text>
  <text x="30" y="420" fill="#ffffff" font-size="34" font-family="Arial, sans-serif" font-weight="700">FIRST IN</text>
  <text x="30" y="450" fill="#decfe9" font-size="16" font-family="Arial, sans-serif">Breaks open sites and forces the duel.</text>
  <rect x="30" y="468" width="126" height="22" rx="11" fill="#ff5ea8"/>
  <text x="46" y="484" fill="#160a1e" font-size="14" font-family="Arial, sans-serif" font-weight="700">HIGH IMPACT</text>
</svg>
